<svg width="402" height="303" fill="none" xmlns="http://www.w3.org/2000/svg">
    <path
        d="M13.543 42.305C54.809-6.463 97.87 61.448 206.988 23.747c109.118-37.7 173.73-36.529 192.274 47.86C413.5 136.397 365.137 148.126 387 201c21.863 52.874 14.891 123.851-107.592 93.298-121.084-30.205-286.803 78.333-257.472-79.309 18.277-98.227-49.66-123.915-8.393-172.684z"
        fill="#371D5A" />
    <path
        d="M181.328 112.48c-3.056 0-5.688-.696-7.896-2.088-2.192-1.392-3.88-3.408-5.064-6.048-1.184-2.656-1.776-5.856-1.776-9.6 0-3.776.608-7 1.824-9.672 1.216-2.672 2.936-4.712 5.16-6.12 2.24-1.424 4.888-2.136 7.944-2.136 1.744 0 3.384.304 4.92.912a13.58 13.58 0 014.08 2.496 12.696 12.696 0 012.832 3.6A10.062 10.062 0 01194.576 88h-4.752a8.881 8.881 0 00-1.488-3.576 8.825 8.825 0 00-2.928-2.664c-1.168-.672-2.488-1.008-3.96-1.008-2.992 0-5.416 1.12-7.272 3.36-1.856 2.24-2.784 5.752-2.784 10.536 0 3.296.44 5.96 1.32 7.992.896 2.032 2.112 3.512 3.648 4.44 1.536.928 3.272 1.392 5.208 1.392 1.936 0 3.544-.432 4.824-1.296 1.28-.864 2.248-1.92 2.904-3.168.672-1.248 1.032-2.448 1.08-3.6l.144-3.072h-8.448v-3.264l13.056.024V112h-3.336v-5.28c-.608.992-1.384 1.928-2.328 2.808-.928.88-2.064 1.592-3.408 2.136-1.328.544-2.904.816-4.728.816zm26.443-35.16v4.608h-4.536V77.32h4.536zm-.096 9.864V112h-4.296V87.184h4.296zm20.745 3.24h-5.592v15.432c0 1.328.208 2.144.624 2.448.432.288 1.232.432 2.4.432h2.712v2.976c-.32.112-.784.208-1.392.288-.608.08-1.368.12-2.28.12-2.576 0-4.312-.52-5.208-1.56-.88-1.04-1.32-2.56-1.32-4.56V90.424h-4.032v-3.24h4.152l1.08-7.224h3.264v7.2h5.592v3.264zM234.797 112V76.336h4.32v14.496c.624-1.024 1.576-1.936 2.856-2.736 1.28-.816 2.912-1.224 4.896-1.224 1.616 0 3.08.304 4.392.912 1.312.592 2.352 1.44 3.12 2.544.768 1.104 1.152 2.416 1.152 3.936V112h-4.44V95.152c0-1.488-.512-2.632-1.536-3.432-1.008-.816-2.328-1.224-3.96-1.224-1.12 0-2.168.184-3.144.552-.96.352-1.744.896-2.352 1.632-.592.72-.888 1.64-.888 2.76V112h-4.416zm36.354.48c-1.728-.016-3.312-.336-4.752-.96-1.44-.64-2.6-1.584-3.48-2.832-.864-1.248-1.296-2.8-1.296-4.656V87.184h4.44v16.392c0 1.616.496 2.928 1.488 3.936 1.008 1.008 2.52 1.512 4.536 1.512 1.824 0 3.288-.472 4.392-1.416 1.12-.96 1.68-2.384 1.68-4.272V87.184h4.416V112h-3.528l-.456-4.752c-.448 1.872-1.36 3.216-2.736 4.032-1.376.816-2.944 1.216-4.704 1.2zm30.941 0c-1.936 0-3.48-.328-4.632-.984-1.152-.656-2.016-1.424-2.592-2.304-.576-.88-.968-1.64-1.176-2.28l-.48 5.088h-3.384V76.336h4.464V91.12c.272-.544.744-1.16 1.416-1.848.672-.688 1.56-1.288 2.664-1.8 1.12-.512 2.472-.768 4.056-.768 3.104 0 5.568 1.08 7.392 3.24 1.84 2.16 2.76 5.344 2.76 9.552 0 3.904-.88 7.048-2.64 9.432-1.744 2.368-4.36 3.552-7.848 3.552zm-.792-3.408c2 0 3.632-.776 4.896-2.328 1.28-1.568 1.92-4.056 1.92-7.464 0-2.896-.592-5.136-1.776-6.72-1.168-1.6-2.88-2.4-5.136-2.4-2.464 0-4.224.8-5.28 2.4-1.056 1.584-1.6 3.824-1.632 6.72 0 3.472.536 5.976 1.608 7.512 1.088 1.52 2.888 2.28 5.4 2.28zM165.992 168l12.552-34.704h5.016L196.112 168h-4.536l-3.408-9.504h-14.184l-3.48 9.504h-4.512zm9.12-13.584h11.88l-5.904-16.728-5.976 16.728zm35.87-11.712c2.672 0 4.92.76 6.744 2.28 1.824 1.504 2.904 3.52 3.24 6.048h-3.936c-.224-1.296-.856-2.408-1.896-3.336-1.04-.944-2.416-1.416-4.128-1.416-2.112 0-3.84.768-5.184 2.304-1.328 1.536-1.992 3.888-1.992 7.056 0 2.864.608 5.16 1.824 6.888 1.232 1.712 3.04 2.568 5.424 2.568 1.696 0 3.064-.48 4.104-1.44s1.664-2.064 1.872-3.312h3.864c-.32 2.496-1.4 4.48-3.24 5.952-1.824 1.456-4.056 2.184-6.696 2.184-2.24 0-4.216-.488-5.928-1.464-1.712-.976-3.056-2.416-4.032-4.32-.976-1.904-1.464-4.24-1.464-7.008 0-2.576.44-4.84 1.32-6.792.896-1.952 2.192-3.472 3.888-4.56 1.712-1.088 3.784-1.632 6.216-1.632zm27.798 3.72h-5.592v15.432c0 1.328.208 2.144.624 2.448.432.288 1.232.432 2.4.432h2.712v2.976c-.32.112-.784.208-1.392.288-.608.08-1.368.12-2.28.12-2.576 0-4.312-.52-5.208-1.56-.88-1.04-1.32-2.56-1.32-4.56v-15.576h-4.032v-3.24h4.152l1.08-7.224h3.264v7.2h5.592v3.264zm11.272-13.104v4.608h-4.536v-4.608h4.536zm-.096 9.864V168h-4.296v-24.816h4.296zm17.674 25.296c-3.44 0-6.2-1.096-8.28-3.288-2.08-2.192-3.12-5.36-3.12-9.504 0-2.592.44-4.864 1.32-6.816.88-1.952 2.168-3.464 3.864-4.536 1.696-1.088 3.768-1.632 6.216-1.632 3.424 0 6.16 1.12 8.208 3.36 2.048 2.24 3.072 5.448 3.072 9.624 0 2.528-.432 4.752-1.296 6.672-.848 1.92-2.112 3.424-3.792 4.512-1.664 1.072-3.728 1.608-6.192 1.608zm0-3.504c2.224 0 3.928-.832 5.112-2.496 1.184-1.68 1.776-3.976 1.776-6.888 0-1.776-.24-3.368-.72-4.776-.464-1.424-1.2-2.552-2.208-3.384-1.008-.832-2.328-1.248-3.96-1.248-2.256 0-3.984.832-5.184 2.496-1.2 1.648-1.8 3.952-1.8 6.912 0 1.744.24 3.328.72 4.752s1.232 2.552 2.256 3.384c1.024.832 2.36 1.248 4.008 1.248zM284.719 168v-24.816h4.296v3.6c.608-1.04 1.56-1.96 2.856-2.76 1.296-.8 2.936-1.2 4.92-1.2 1.568 0 3.008.312 4.32.936 1.328.624 2.384 1.6 3.168 2.928.8 1.312 1.2 3.008 1.2 5.088V168h-4.44v-15.792c0-1.936-.512-3.368-1.536-4.296-1.008-.944-2.32-1.416-3.936-1.416-1.12 0-2.168.184-3.144.552-.976.352-1.768.896-2.376 1.632-.608.72-.912 1.632-.912 2.736V168h-4.416zm36.089.48c-1.744 0-3.352-.272-4.824-.816-1.472-.544-2.704-1.376-3.696-2.496-.976-1.136-1.584-2.6-1.824-4.392h4.032c.32 1.456 1.048 2.552 2.184 3.288 1.152.736 2.52 1.104 4.104 1.104 1.664 0 3.008-.312 4.032-.936 1.024-.624 1.536-1.584 1.536-2.88 0-1.744-1.096-2.88-3.288-3.408l-5.136-1.272c-2.016-.48-3.624-1.232-4.824-2.256-1.184-1.024-1.776-2.456-1.776-4.296-.016-2.176.768-3.952 2.352-5.328 1.584-1.392 3.952-2.088 7.104-2.088 2.688 0 4.856.608 6.504 1.824 1.664 1.216 2.528 2.984 2.592 5.304h-3.912c-.176-1.184-.712-2.12-1.608-2.808-.896-.704-2.104-1.056-3.624-1.056-1.584 0-2.872.32-3.864.96-.992.624-1.488 1.6-1.488 2.928 0 .88.352 1.576 1.056 2.088.704.496 1.744.912 3.12 1.248l4.968 1.248c1.52.4 2.704.968 3.552 1.704.848.736 1.44 1.544 1.776 2.424.336.88.504 1.728.504 2.544 0 2.288-.84 4.088-2.52 5.4-1.68 1.312-4.024 1.968-7.032 1.968zM167.24 224v-34.704h13.872c4.848 0 8.376.792 10.584 2.376 2.224 1.568 3.336 3.832 3.336 6.792 0 1.6-.4 3.016-1.2 4.248-.8 1.232-2.272 2.376-4.416 3.432 1.52.448 2.712 1.016 3.576 1.704.88.688 1.52 1.424 1.92 2.208a7.5 7.5 0 01.768 2.352c.112.768.168 1.48.168 2.136 0 3.232-1.072 5.616-3.216 7.152-2.128 1.536-5.712 2.304-10.752 2.304h-14.64zm9.336-21.168h5.88c1.104 0 1.976-.296 2.616-.888.656-.608.984-1.368.984-2.28 0-1.04-.384-1.856-1.152-2.448-.752-.608-1.68-.912-2.784-.912h-5.544v6.528zm0 14.16h5.64c1.376 0 2.408-.368 3.096-1.104.688-.752 1.032-1.584 1.032-2.496 0-.96-.352-1.76-1.056-2.4-.704-.64-1.648-.96-2.832-.96h-5.88v6.96zm32.437 7.488c-1.008 0-2.056-.168-3.144-.504a11.142 11.142 0 01-3.048-1.536 8.387 8.387 0 01-2.304-2.448c-.592-.976-.888-2.088-.888-3.336v-17.472h9.36v16.176c0 .72.264 1.328.792 1.824.528.48 1.264.72 2.208.72.944 0 1.68-.24 2.208-.72.544-.496.816-1.104.816-1.824v-16.176h9.264V224h-6.912l-1.104-5.088c-.304 1.648-.88 2.872-1.728 3.672-.848.784-1.784 1.296-2.808 1.536-1.008.24-1.912.36-2.712.36zm28.944-35.184v7.872h-8.88v-7.872h8.88zm0 9.888V224h-8.88v-24.816h8.88zm14.469 25.344c-2.288 0-4.08-.24-5.376-.72-1.28-.496-2.208-1.136-2.784-1.92a5.796 5.796 0 01-1.08-2.592 20.706 20.706 0 01-.192-2.784v-28.176h9.144v26.928c0 .592.152 1.152.456 1.68.304.528 1.088.88 2.352 1.056l1.008.096v5.664c-.56.208-1.136.384-1.728.528a6.87 6.87 0 01-1.8.24zm16.571-.048c-3.424 0-6.056-1.184-7.896-3.552-1.84-2.384-2.76-5.552-2.76-9.504 0-3.92.848-7.016 2.544-9.288 1.696-2.288 4.064-3.432 7.104-3.432 1.232 0 2.488.232 3.768.696 1.296.464 2.328 1.336 3.096 2.616v-13.68h9.36V224h-6.6l-1.104-5.088c-.56 1.728-1.448 3.088-2.664 4.08-1.216.992-2.832 1.488-4.848 1.488zm2.208-6.528c1.088 0 1.968-.472 2.64-1.416.672-.96 1.008-2.664 1.008-5.112 0-2.208-.336-3.784-1.008-4.728-.672-.944-1.552-1.416-2.64-1.416-1.056 0-1.96.448-2.712 1.344-.752.896-1.128 2.496-1.128 4.8 0 2.448.376 4.152 1.128 5.112.752.944 1.656 1.416 2.712 1.416zm25.908-4.224c-.016 1.488.328 2.568 1.032 3.24.704.656 1.56.984 2.568.984.848 0 1.608-.16 2.28-.48.688-.32 1.224-.96 1.608-1.92h8.256c-.256 1.84-.984 3.432-2.184 4.776-1.2 1.328-2.664 2.352-4.392 3.072a13.612 13.612 0 01-5.328 1.08c-2.576 0-4.848-.52-6.816-1.56-1.952-1.056-3.472-2.528-4.56-4.416-1.088-1.888-1.632-4.088-1.632-6.6 0-2.368.496-4.552 1.488-6.552a12.2 12.2 0 014.32-4.824c1.888-1.216 4.16-1.824 6.816-1.824 2.704 0 4.96.56 6.768 1.68 1.808 1.12 3.16 2.656 4.056 4.608.912 1.936 1.368 4.128 1.368 6.576v2.16h-15.648zm-.048-5.232h7.08c0-.944-.304-1.76-.912-2.448-.592-.704-1.48-1.056-2.664-1.056-.96 0-1.784.352-2.472 1.056-.688.688-1.032 1.504-1.032 2.448zM316.587 224v-24.816h9.024v6.864a13.949 13.949 0 011.632-3.648 8.44 8.44 0 012.736-2.688c1.104-.672 2.424-1.008 3.96-1.008h.36v8.832c-.016 0-.12-.016-.312-.048-2.32-.24-4.056-.144-5.208.288-1.152.416-1.92 1.024-2.304 1.824a5.907 5.907 0 00-.552 2.496V224h-9.336z"
        fill="#9AE4EA" />
    <path
        d="M107.288 111.026c3.876-3.294 7.995-6.665 12.958-8.109 3.534 3.652 5.406 8.548 7.095 13.257 3.854 11.562 4.657 24.425.68 36.071 1.625 2.318 3.33 4.583 4.914 6.929 2.234 3.519 2.479 8.139.707 11.899-2.332 4.724-4.628 9.47-7.014 14.165-1.271 2.404-5.049 2.648-6.648.466-2.624-3.727-5.137-7.536-7.76-11.267-3.216 1.775-7.053 2.506-10.672 1.748-4.183-.811-7.791-3.602-10.022-7.181-2.922 1.206-5.767 2.832-8.67 4.186-1.391.613-2.667 1.567-4.19 1.832-2.343.339-4.688-1.731-4.558-4.117.222-5.156.393-10.316.649-15.47.251-4.351 2.965-8.435 6.882-10.348a336.912 336.912 0 016.8-3.066c.595-.134.502-.838.656-1.295 2.508-11.592 9.447-21.856 18.193-29.7zm-.721 15.961c-3.299 2.501-4.313 7.472-2.224 11.055 2.123 4.126 7.796 5.776 11.8 3.435 3.028-1.57 4.85-5.08 4.51-8.457-.272-3.24-2.525-6.221-5.583-7.335-2.804-1.108-6.155-.58-8.503 1.302z"
        fill="#fff" />
    <path
        d="M87.83 178.959c.343-1.446 2.393-1.954 3.396-.872 4.404 3.999 10.754 5.699 16.567 4.438 1.365-.406 2.871.924 2.54 2.332-.8 3.052-1.613 6.103-2.446 9.147-.375 1.493-2.594 1.916-3.5.676-.671-1.011-1.231-2.095-1.858-3.135-2.037 2.248-4.007 4.556-6.053 6.795-.98 1.066-3.006.532-3.338-.872-.658-2.969-1.197-5.967-1.864-8.935-1.053.598-2.08 1.252-3.166 1.79-1.4.627-3.103-.865-2.69-2.339.78-3.014 1.603-6.018 2.412-9.025z"
        fill="#EA85E5" />
    <path d="M110.772 138.017a4.253 4.253 0 102.203-8.219 4.255 4.255 0 00-2.203 8.219z" fill="#EFE7EF" />
</svg>